<?xml version="1.0" encoding="UTF-8" standalone="no"?>
<!DOCTYPE svg PUBLIC "-//W3C//DTD SVG 1.1//EN" "http://www.w3.org/Graphics/SVG/1.1/DTD/svg11.dtd">
<svg width="100%" height="100%" viewBox="0 0 400 100" version="1.1" xmlns="http://www.w3.org/2000/svg" xmlns:xlink="http://www.w3.org/1999/xlink" xml:space="preserve" xmlns:serif="http://www.serif.com/" style="fill-rule:evenodd;clip-rule:evenodd;stroke-linejoin:round;stroke-miterlimit:2;">
    <g transform="matrix(1,0,0,1,11.560281,3.465346)">
        <g transform="matrix(4.242762,0,0,4.242762,-2326.278312,-1642.419539)">
            <g transform="matrix(1,0,0,1,577.992,401.163)">
                <text x="0px" y="0px" style="font-family:'SpaceGrotesk-Regular', 'Space Grotesk';font-size:12px;fill:rgb(79,182,201);">Ov</text>
            </g>
            <g transform="matrix(1,0,0,1,592.248,401.163)">
                <text x="0px" y="0px" style="font-family:'SpaceGrotesk-Regular', 'Space Grotesk';font-size:12px;fill:rgb(79,182,201);">erSigh</text>
            </g>
            <g transform="matrix(1,0,0,1,629.064,401.163)">
                <text x="0px" y="0px" style="font-family:'SpaceGrotesk-Regular', 'Space Grotesk';font-size:12px;fill:rgb(79,182,201);">t</text>
            </g>
        </g>
        <g transform="matrix(0.308563,0,0,0.308563,-98.50904,-24.092282)">
            <path d="M528.45,379.044C395.864,390.473 321.735,250.339 383.83,149.709C433.752,68.807 557.762,46.264 630.407,135.573C675.472,190.976 679.358,293.547 599.168,352.067C567.232,375.374 529.31,378.883 528.45,379.044ZM486.577,95.882C481.224,97.128 444.553,105.661 424.652,125.657C421.607,128.716 427.024,132.1 435.369,140.63C440.187,145.555 441.373,146.236 446.87,141.959C476.638,118.801 502.154,122.654 504.112,118.352C504.388,117.746 504.884,96.244 503.32,94.674C501.701,93.049 487.897,95.635 486.577,95.882ZM551.553,313.896C555.452,312.658 555.572,312.812 569.163,303.045C573.322,300.055 568.514,298.07 566.739,297.074C562.023,294.43 513.601,267.276 507.473,264.589C499.372,261.037 517.765,280.906 518.903,282.135C547.655,313.194 547.936,313.452 551.553,313.896ZM626.79,157.345C622.089,150.406 622.356,150.32 617.06,143.845C611.392,136.916 609.676,141.085 603.414,147.415C595.446,155.468 593.15,156.377 596.988,161.072C607.698,174.173 607.361,181.631 613.361,175.364C625.5,162.683 628.277,161.264 626.79,157.345ZM604.968,240.544C605.891,232.974 606.581,233.053 605.766,225.474C605.638,224.288 604.281,211.664 604.009,210.669C602.96,206.82 601.32,210.844 569.343,243.351C554.324,258.618 534.914,258.807 534.944,261.476C534.952,262.272 540.806,265.486 541.347,265.784C575.423,284.493 582.487,290.237 585.098,287.123C602.052,266.91 604.522,244.571 604.968,240.544ZM418.9,285.269C415.312,278.529 414.365,276.497 412.6,277.665C410.834,278.833 397.123,293.635 396.975,293.826C393.028,298.883 410.334,317.431 410.492,317.512C412.011,318.29 413.093,318.845 427.066,304.09C431.842,299.048 425.139,296.296 418.9,285.269ZM378.051,210.453C377.424,217.902 375.027,221.21 382.494,221.612C403.015,222.717 403.342,220.2 403.561,218.511C404.426,211.845 404.379,205.108 411.355,187.444C422.476,159.286 432.77,161.087 428.366,155.599C428.128,155.303 414.16,139.548 411.581,139.959C408.036,140.525 396.304,159.462 395.17,161.292C383.171,180.661 378.756,206.348 378.051,210.453ZM404.936,248.411C403.668,241.371 403.349,236.851 400.477,236.708C381.487,235.76 379.954,236.501 378.361,237.272C375.307,238.749 380.521,263.365 385.606,276.46C388.217,283.181 390.756,277.99 403.478,264.48C409.21,258.392 406.311,255.028 404.936,248.411ZM565.272,330.715C578.088,344.336 578.662,347.038 583.693,343.795C601.972,332.009 601.348,330.077 600.174,328.731C598.952,327.329 586.666,313.233 583.489,312.54C581.735,312.157 582.152,313.49 564.443,324.411C560.961,326.558 562.562,327.605 565.272,330.715ZM469.639,165.263C492.921,178.174 507.075,185.467 519.638,193.209C526.724,197.577 518.504,186.25 518.147,185.758C515.658,182.329 514.795,181.14 481.114,147.89C476.976,143.805 475.696,141.461 463.658,148.759C462.877,149.232 454.7,154.189 455.325,156.561C455.667,157.857 455.88,157.894 469.639,165.263ZM419.075,219.438C418.789,222.152 417.077,227.385 419.702,244.423C421.081,253.373 446.359,208.448 476.495,196.487C477.876,195.939 489.776,193.319 483.619,190.278C468.905,183.009 444.411,166.434 440.839,168.973C437.496,171.348 428.779,185.893 425.882,192.669C420.534,205.184 419.987,212.392 419.075,219.438ZM565.256,205.358C549.209,235.289 542.534,242.007 547.532,240.776C549.598,240.267 550.574,241.11 593.522,196.521C597.896,191.979 598.001,190.577 590.24,177.66C585.107,169.118 583.112,172.019 582.734,172.635C582.098,173.673 571.434,193.971 565.256,205.358ZM490.574,336.029C454.716,328.172 447.83,313.756 441.551,312.322C438.647,311.659 424.595,327.716 423.97,328.77C419.624,336.108 477.099,365.356 501.538,363.924C504.775,363.734 504.625,362.223 504.426,341.501C504.38,336.667 501.242,337.755 490.574,336.029ZM426.965,267.33C436.026,285.763 438.063,285.403 439.294,284.266C443.908,280.002 444.83,268.541 480.703,213.602C482.824,210.353 477.199,209.565 465.864,220.86C464.954,221.767 426.672,261.222 426.205,263.43C425.856,265.079 426.289,265.017 426.965,267.33ZM619.073,250.408C607.428,297.929 589.761,296.202 596.694,303.326C611.295,318.328 611.938,318.313 613.583,317.653C615.54,316.869 635.131,292.444 643.135,261.406C649.167,238.013 646.367,237.194 644.436,236.797C644.334,236.776 624.747,236.014 622.639,236.824C621.218,237.37 620.997,237.909 619.073,250.408ZM537.587,96.014C529.981,94.862 530.082,94.737 522.459,93.902C519.556,93.584 519.484,95.191 519.764,116.491C519.9,126.856 537.151,111.436 580.162,143.931C584.383,147.121 586.98,142.596 594.72,134.726C599.443,129.923 603.424,129.08 598.356,124.655C573.63,103.07 542.862,97.047 537.587,96.014ZM630.508,221.933C641.778,221.687 647.076,223.27 646.761,216.484C646.489,210.647 643.206,192.469 638.541,180.483C635.189,171.868 632.04,177.615 630.365,179.373C616.833,193.577 615.793,193.848 616.857,198.412C621.595,218.728 620.486,219.012 621.374,220.59C622.07,221.828 629.77,221.924 630.508,221.933ZM525.561,136.052C515.02,134.942 515.07,134.492 504.474,135.219C492.912,136.012 493.081,137.651 493.258,138.571C493.526,139.968 493.886,139.75 505.905,151.068C538.055,181.344 535.38,183.91 542.933,210.31C543.748,213.16 546.174,208.67 546.322,208.396C565.288,173.295 573.761,159.129 571.241,156.732C555.053,141.331 529.51,136.759 525.561,136.052ZM511.498,322.912C532.352,321.624 533.237,320.031 532.39,318.548C527.447,309.904 500.576,291.894 489.051,265.688C484.699,255.79 485.72,255.466 481.099,245.724C479.114,241.536 477.745,246.404 451.054,295.252C448.672,299.611 453.084,301.403 459.271,305.825C481.096,321.423 498.459,321.75 511.498,322.912ZM533.421,363.049C542.063,360.987 542.097,361.421 550.625,358.943C563.082,355.323 565.751,353.691 562.202,349.771C547.056,333.05 545.477,333.326 543.534,333.665C541.851,333.96 531.337,335.797 522.575,337.812C519.202,338.587 519.564,339.879 519.736,359.499C519.8,366.803 528.058,363.584 533.421,363.049ZM531.036,230.474C530.473,205.995 508.953,209.473 506.455,210.382C483.089,218.884 492.586,250.199 513.501,248.508C529.839,247.187 530.727,231.957 531.036,230.474Z" style="fill:rgb(79,182,201);"/>
        </g>
    </g>
</svg>
